<svg width="69" height="68" viewBox="0 0 69 68" fill="none" xmlns="http://www.w3.org/2000/svg">
<g clip-path="url(#clip0_33_15)">
<path d="M34.3974 20.9277C34.6478 21.2437 34.8662 21.53 35.0946 21.8087C36.3367 23.3282 37.976 24.2597 39.7896 24.9311C41.1255 25.427 42.4537 25.946 43.7995 26.4145C44.3058 26.5911 44.5077 26.929 44.6015 27.4041C44.8673 28.7579 44.6533 30.0931 44.4448 31.4272C44.3323 32.1459 44.1845 32.8601 44.0433 33.5743C43.409 36.7779 41.9087 39.5635 39.7774 42.0046C39.1508 42.7222 38.3279 43.2993 37.5182 43.8215C35.3009 45.251 32.3081 44.8802 30.3268 43.1424C27.1564 40.3611 25.4443 36.8361 24.7625 32.7602C24.532 31.3812 24.3919 29.9878 24.2143 28.5999C24.201 28.4924 24.2121 28.3805 24.2187 28.2719C24.2772 27.347 24.5585 26.6416 25.5612 26.2652C27.3218 25.6048 29.0306 24.8083 30.7659 24.0798C32.201 23.4774 33.2512 22.4286 34.1657 21.2174C34.2286 21.134 34.297 21.0528 34.3985 20.9266L34.3974 20.9277ZM43.4663 28.4321C43.4961 28.397 43.527 28.3608 43.5568 28.3257C43.3715 28.0964 43.2215 27.8232 42.9964 27.6432C41.8271 26.7107 40.5143 26.2126 38.9821 26.3486C37.2854 26.4989 35.9065 27.5072 35.5347 29.154C35.2766 30.2961 35.2579 31.4931 35.1586 32.667C35.1376 32.9193 35.2248 33.1804 35.2766 33.5326C35.431 33.39 35.516 33.345 35.5491 33.2759C36.1117 32.0789 36.6191 30.8545 37.2402 29.6894C37.7234 28.7821 38.5452 28.1874 39.5811 28.0437C40.2253 27.9548 40.8993 28.0042 41.5513 28.0711C42.1955 28.138 42.8298 28.307 43.4686 28.431L43.4663 28.4321ZM25.217 27.8616C25.302 28.002 25.3869 28.1424 25.4719 28.2829C25.8602 28.2192 26.2562 28.1874 26.6346 28.0876C28.9898 27.4677 30.8475 28.1819 32.0852 30.2303C32.4327 30.8052 32.7317 31.4108 33.013 32.0208C33.2281 32.4871 33.3781 32.9819 33.5579 33.4635C33.9021 31.2945 33.9473 29.177 32.4162 27.3887C32.1128 27.0343 31.6418 26.6997 31.1961 26.6086C29.3505 26.229 27.5513 26.3366 25.9319 27.4567C25.7079 27.6114 25.4553 27.7277 25.2159 27.8616H25.217ZM38.6191 30.4793C38.5397 31.6181 39.0074 32.3181 39.7686 32.2621C40.0665 32.2402 40.3853 32.0526 40.6291 31.8595C41.0637 31.5139 41.0152 31.0169 40.8795 30.5715C41.3075 30.5978 41.73 30.724 42.0808 30.6176C42.436 30.51 42.7217 30.1721 42.9898 29.9713C42.2705 29.7892 41.6395 29.6312 41.0096 29.4711C40.885 29.4392 40.7625 29.4019 40.6379 29.3734C39.0549 29.0103 37.3792 30.1403 37.2534 31.718C37.7035 31.3087 38.1205 30.9313 38.618 30.4804L38.6191 30.4793ZM31.3627 31.3921C31.7587 31.233 31.6263 30.9763 31.4829 30.7317C30.874 29.6883 29.5579 29.1112 28.3753 29.3943C27.623 29.5742 26.8828 29.8013 26.0841 30.0218C26.4404 30.7777 27.2215 30.5835 27.8679 30.6625C27.9087 31.5238 28.5066 32.2106 29.1906 32.1327C29.4763 32.0998 29.8502 31.9495 29.9881 31.7311C30.1944 31.4042 30.2286 30.9686 30.3511 30.5254C30.6577 30.7887 31.0074 31.0893 31.3627 31.3943V31.3921ZM37.6418 39.2618C37.024 39.1773 36.4371 39.083 35.8447 39.0216C35.1178 38.9459 34.382 38.8175 33.6594 38.8614C32.9975 38.902 32.3456 39.1313 31.6936 39.2991C31.5734 39.3298 31.3924 39.4604 31.3935 39.5427C31.3957 39.6765 31.4961 39.8828 31.6065 39.9245C31.8348 40.0123 32.0962 40.0232 32.3467 40.0441C32.6886 40.0726 33.056 40.0079 33.3726 40.1088C34.6434 40.5158 35.869 40.1121 37.1034 39.9442C37.4421 39.8982 37.7708 39.6996 37.6406 39.264L37.6418 39.2618ZM34.5066 37.7423C35.1056 37.4911 35.6848 37.276 36.2352 37.005C36.532 36.858 36.8298 36.5991 36.5772 36.2206C36.3378 35.8618 35.9914 35.9145 35.6649 36.1416C34.6004 36.8822 34.382 36.8624 33.2656 36.1416C33.078 36.0209 32.6522 36.0187 32.4945 36.1504C32.2033 36.3928 32.3588 36.7977 32.6291 36.9425C33.217 37.2574 33.858 37.4735 34.5055 37.7434L34.5066 37.7423ZM35.5083 24.4287C35.4355 24.4034 35.3075 24.3793 35.2016 24.3178C34.5717 23.9569 34.3632 24.0172 33.773 24.4089C33.3991 24.6569 33.4035 24.9509 33.5259 25.2394C33.6671 25.5697 33.8536 26.0206 34.3378 25.8604C34.6688 25.7507 34.9909 25.5115 35.2259 25.2504C35.3935 25.0639 35.4079 24.7424 35.5083 24.4297V24.4287ZM34.7504 42.3042C35.0825 42.2449 35.4564 42.2252 35.7863 42.0968C35.9142 42.0474 36.0025 41.7479 35.9948 41.568C35.9914 41.4868 35.709 41.3573 35.5502 41.354C34.8276 41.3354 34.104 41.3508 33.3814 41.3584C33.281 41.3595 33.12 41.3573 33.0935 41.4089C33.0438 41.5087 33.0207 41.6909 33.0791 41.7578C33.2148 41.9136 33.3902 42.0858 33.58 42.1363C33.9462 42.2328 34.3334 42.2493 34.7504 42.3053V42.3042Z" fill="#F36E0F"/>
<path d="M66.5673 35.1717C66.8938 35.1158 67.1939 35.0642 67.6285 34.9885C67.2115 45.8786 62.8464 54.6885 54.2242 61.3273C43.9606 69.2299 29.5425 70.1921 18.5088 63.7914C7.62079 57.4742 2.0433 47.8853 1.22035 35.3835H2.26172C2.83094 45.8402 7.16189 54.389 15.623 60.6822C21.5303 65.0762 28.2363 67.3373 35.6682 66.961C53.644 66.0504 66.4658 51.2085 66.5673 35.1717Z" fill="#F36E0F"/>
<path d="M62.9766 28.8764C60.9898 28.7316 59.0339 28.5901 57.077 28.4441C56.6666 28.4134 56.1977 27.8879 56.2088 27.3284C56.222 26.6975 56.3389 26.0656 56.4504 25.4402C56.9236 22.7676 57.3991 20.095 57.9065 17.4279C58.0058 16.9089 58.1812 16.3757 58.4559 15.9303C58.6004 15.6955 59.0461 15.5013 59.3362 15.5255C60.4283 15.6165 61.5138 15.7975 62.6004 15.9566C64.0323 16.1662 65.4642 16.3724 66.8916 16.6072C67.9871 16.7872 68.2562 17.1624 68.0852 18.2441C67.7962 20.0796 67.4829 21.9118 67.184 23.7462C67.1277 24.0885 66.9711 24.3069 66.639 24.4791C65.3726 25.1341 64.6346 26.2609 64.0477 27.5028C63.9076 27.799 63.773 28.1018 63.6793 28.4145C63.5645 28.7974 63.3439 28.962 62.9777 28.8753L62.9766 28.8764ZM63.89 24.9981C64.0974 24.4594 64.2959 24.0106 64.436 23.5455C64.4967 23.3436 64.5199 23.0605 64.4239 22.8927C63.8469 21.8855 63.2303 20.9014 62.5563 19.7922C61.6638 20.5075 60.8398 21.1307 60.0599 21.8032C59.441 22.3375 59.2832 23.4818 59.6462 24.2279C60.211 24.105 60.7703 23.9832 61.4322 23.8384C61.1994 24.5801 60.9964 25.2274 60.767 25.9581C61.2921 25.9965 61.751 26.0305 62.2959 26.07V23.8735C62.8751 24.2816 63.3472 24.6152 63.8911 24.9981H63.89ZM61.0781 19.5442C60.9005 18.7795 60.7328 18.0247 60.543 17.2754C60.5188 17.1788 60.3864 17.057 60.2937 17.0461C60.2022 17.0362 60.051 17.1295 60.0047 17.2183C59.634 17.938 59.281 18.6676 58.8519 19.5388C59.2027 19.4499 59.4388 19.4203 59.6484 19.3292C59.8536 19.2403 60.0312 19.0889 60.339 18.8882C60.3202 19.6583 60.6886 19.6101 61.077 19.5442H61.0781Z" fill="#F36E0F"/>
<path d="M45.6164 21.2239C44.9975 20.6743 44.4162 20.1564 43.773 19.5848C44.9534 19.033 45.4741 18.0949 45.4575 16.7345C44.4823 17.4553 43.5656 18.1333 42.682 18.7872C42.0036 18.5634 41.8249 18.1487 41.8138 17.4685C41.7918 16.051 41.1972 14.7564 40.7306 13.3992C39.5061 14.0279 38.7118 14.9835 37.9914 16.1629C37.6186 13.0931 35.8723 10.7069 34.3985 8.05511C32.8574 10.448 31.9374 13.0218 30.9799 15.4454C30.1404 14.6445 29.249 13.7953 28.3014 12.8913C27.5888 14.5183 27.1575 16.0663 27.1906 17.7087C27.1994 18.1136 26.9953 18.2156 26.7085 18.3747C26.3775 18.5568 26.2584 18.322 26.062 18.1728C25.3097 17.6001 24.5474 17.0406 23.7807 16.469C23.3285 17.9688 24.3875 18.5678 25.3373 19.2008C24.6235 19.8525 23.9606 20.4581 23.2998 21.0616C22.1547 19.6781 21.2965 15.2424 22.0367 13.9226C23.2501 14.5753 24.4647 15.2292 25.6837 15.8864C26.2452 13.9862 26.8232 12.0267 27.3814 10.1386C28.3599 10.9318 29.3329 11.7195 30.382 12.5698C31.5083 9.92133 32.6787 7.38367 34.5055 5.1565C36.104 7.62175 37.6616 10.0519 38.6997 12.8737C39.6859 12.0662 40.5982 11.3191 41.5678 10.5247C42.1768 12.4985 42.7714 14.4294 43.3693 16.3702C44.6302 15.667 45.6484 14.5018 47.2391 14.1661C47.2689 14.4119 47.3384 14.6236 47.3097 14.8211C47.1233 16.1179 46.8696 17.407 46.7283 18.7082C46.6224 19.6825 46.0996 20.4241 45.6164 21.2228V21.2239Z" fill="#F36E0F"/>
<path d="M34.2728 60.4682C35.0902 59.6201 35.8381 58.7677 36.6677 58.003C38.0245 56.7489 39.398 55.507 40.8309 54.3419C42.6158 52.8903 43.9374 51.1591 44.5662 48.9341C44.5949 48.831 44.6412 48.7322 44.6986 48.5808C45.142 48.7092 45.5712 48.8332 46.0918 48.9835C45.8922 49.6516 45.7399 50.3033 45.505 50.9243C44.8023 52.785 43.8602 54.5009 42.3731 55.88C41.7157 56.49 41.1277 57.1768 40.4548 57.7671C38.5088 59.4742 36.7328 61.3426 35.0074 63.2626C34.4448 63.888 34.4824 63.8276 33.9253 63.2165C32.5706 61.7299 31.1784 60.2773 29.773 58.839C28.265 57.2942 26.6897 55.8131 25.2082 54.2442C23.9539 52.9178 23.3483 51.2567 23.0207 49.486C22.9501 49.1031 23.0207 48.8639 23.4597 48.7948C23.7035 48.7564 23.933 48.6302 24.147 48.5512C24.5022 49.3598 24.8177 50.1541 25.1961 50.9177C25.9495 52.4361 27.1145 53.6013 28.4051 54.6885C29.9573 55.9963 31.4399 57.3875 32.9104 58.7863C33.4311 59.2822 33.826 59.9076 34.275 60.4693L34.2728 60.4682Z" fill="#F36E0F"/>
<path d="M50.5629 46.1342C51.9716 46.2034 53.2755 45.9949 54.468 45.2927C54.6566 45.1819 54.8254 44.991 54.9335 44.7979C55.9352 43.0283 56.4448 41.0973 56.7548 39.1631C58.3092 39.5131 59.8525 39.862 61.4355 40.2185C61.1851 42.619 60.5938 45.0525 59.7488 47.4223C59.6131 47.8019 59.2766 48.1595 58.9457 48.413C57.7841 49.3005 56.628 50.2145 55.1851 50.6325C54.6787 50.7795 54.1624 50.8881 53.6109 51.0252C53.0086 49.1086 51.8558 47.5967 50.5629 46.1342Z" fill="#F36E0F"/>
<path d="M22.757 26.4605C21.4608 26.0886 20.5386 25.1012 20.618 23.8121C20.7284 22.0051 19.8889 20.5821 19.0405 19.1317C18.9964 19.056 18.9413 18.9858 18.8332 18.8267C19.5734 18.9002 20.233 18.9496 20.8861 19.0461C21.0008 19.0626 21.1145 19.2645 21.1795 19.4038C21.7896 20.7017 22.5916 21.9217 22.8188 23.3765C22.8321 23.4621 22.8883 23.5411 22.9655 23.7166C25.8767 19.9853 29.6153 17.8481 34.3654 17.8316C39.1299 17.8152 42.8309 20.0698 45.9352 23.6234C46.0312 23.4105 46.1007 23.2558 46.1702 23.1011C46.7206 21.891 47.2788 20.6853 47.8172 19.4696C48.019 19.0154 48.3279 18.8048 48.8332 18.819C49.2435 18.8311 49.6561 18.7817 50.179 18.7532C49.7488 19.4609 49.3781 20.0588 49.0174 20.6644C48.4316 21.6485 48.5276 22.7753 48.3434 23.8439C48.2639 24.3047 48.0687 24.7457 47.9308 25.1966C47.7046 25.9339 47.1122 26.1819 46.4305 26.2773C46.3047 26.2949 46.0963 26.1753 46.0257 26.059C43.7477 22.2969 40.4305 19.948 36.1084 19.1866C32.4404 18.5404 29.1828 19.7154 26.3588 22.0523C25.4619 22.7939 24.6644 23.6716 23.9098 24.5614C23.4476 25.1056 23.1542 25.7924 22.757 26.4605Z" fill="#F36E0F"/>
<path d="M18.2639 46.1452C17.8172 46.6927 17.3605 47.1469 17.0317 47.6779C16.4482 48.6192 15.9231 49.5979 15.4156 50.5831C15.2689 50.8672 15.1762 51.0055 14.8188 50.9342C12.8784 50.5469 11.2005 49.6593 9.77855 48.3109C9.46084 48.0092 9.22477 47.5748 9.07364 47.1568C8.27937 44.9746 7.77303 42.7211 7.5149 40.4138C7.50497 40.3271 7.51379 40.2383 7.51379 40.2273C9.08798 39.9124 10.618 39.6063 12.0665 39.3167C12.4592 40.6245 12.8651 42.031 13.3086 43.4265C13.4619 43.9093 13.6914 44.3722 13.9231 44.8265C14.0146 45.0053 14.1823 45.1743 14.3566 45.2774C15.2733 45.8216 16.2805 46.0629 17.3417 46.098C17.6274 46.1079 17.9131 46.1277 18.2661 46.1463L18.2639 46.1452Z" fill="#F36E0F"/>
<path d="M60.2948 13.1535C59.4641 13.4135 58.9821 13.1491 58.4504 12.5007C53.4079 6.35567 46.9391 2.55631 39.0483 1.38019C31.1233 0.198581 23.7819 1.93753 17.1167 6.36334C14.5673 8.05621 12.3632 10.1484 10.489 12.572C10.436 12.6411 10.3731 12.7036 10.3136 12.7706C9.57777 11.9806 9.57667 11.9719 10.2011 11.2368C15.1277 5.43737 21.3649 1.84976 28.8629 0.537594C34.9666 -0.531009 40.9699 -0.0493697 46.7195 2.37857C51.6495 4.45983 55.8348 7.57457 59.2281 11.714C59.5965 12.1639 59.9231 12.6488 60.2959 13.1546L60.2948 13.1535Z" fill="#F36E0F"/>
<path d="M25.7256 47.8907C26.1338 47.7119 26.4967 47.5517 26.8916 47.3784C28.3753 50.5677 30.8475 52.4976 34.3599 52.5151C37.8844 52.5327 40.361 50.6303 41.8414 47.4124C41.8547 47.4124 41.9109 47.4014 41.9606 47.4146C43.2943 47.7635 43.4002 47.9928 42.8685 49.2643C42.1922 50.8826 41.1817 52.2189 39.7399 53.2623C37.8525 54.6271 36.126 56.1828 34.586 57.9349C34.5397 57.9876 34.4801 58.0304 34.4812 58.0293C33.2104 56.8696 31.965 55.7187 30.6997 54.5898C30.2772 54.2135 29.815 53.8789 29.3483 53.5563C27.5712 52.3286 26.4162 50.6829 25.9164 48.5863C25.8668 48.3757 25.8017 48.1683 25.7234 47.8907H25.7256Z" fill="#F36E0F"/>
<path d="M28.8442 44.155C32.6059 47.2028 35.8271 47.6329 40.0157 44.2197C40.4493 45.1819 40.1371 46.3526 40.8078 47.4091C39.398 49.4947 37.3461 50.8859 34.6489 51.249C34.1569 51.3149 33.6131 51.2293 33.131 51.0878C31.6749 50.661 30.3301 49.9841 29.217 48.9451C28.7471 48.5062 28.3963 47.9401 27.9915 47.4321L28.1558 47.3828C28.2452 47.1491 28.372 46.9231 28.4184 46.6817C28.5739 45.86 28.6997 45.0327 28.8464 44.1539L28.8442 44.155Z" fill="#F36E0F"/>
<path d="M47.2877 49.2907C48.4702 49.995 49.345 50.9923 50.136 52.073C50.6853 52.8245 51.1873 53.6123 51.773 54.3342C52.7526 55.5432 53.9881 56.3386 55.5954 56.4483C55.7234 56.4571 55.8503 56.4824 55.976 56.5054C56.008 56.5109 56.0356 56.5372 56.1051 56.5778C55.9959 56.7029 55.8999 56.8279 55.7896 56.9388C54.9777 57.7561 54.1889 58.5998 53.3417 59.381C52.2011 60.432 52.0378 60.3684 50.7901 59.7518C50.4967 59.607 50.1922 59.4457 49.9595 59.223C48.4537 57.7846 46.9666 56.3277 45.4741 54.8762C45.2711 54.6787 45.2115 54.4933 45.3847 54.2091C46.2849 52.7368 47.0317 51.2019 47.1696 49.4454C47.1718 49.4157 47.2115 49.3883 47.2877 49.2918V49.2907Z" fill="#F36E0F"/>
<path d="M12.8023 56.4637C13.2226 56.4231 13.5656 56.4077 13.9021 56.3551C14.7383 56.2234 15.4641 55.8581 16.0963 55.2974C16.9611 54.5295 17.7543 53.7143 18.3577 52.7071C19.0251 51.5924 19.8138 50.5557 20.8905 49.78C21.1089 49.6231 21.3384 49.4816 21.5833 49.3192C21.8502 50.2408 22.04 51.1295 22.3687 51.9655C22.6997 52.8059 23.1685 53.5925 23.612 54.4735C23.1718 54.9892 22.6897 55.6101 22.1481 56.1752C21.2876 57.0737 20.4437 58.0041 19.4829 58.7863C18.8508 59.3009 18.0499 59.6432 17.2755 59.9372C16.9611 60.0568 16.5077 59.8802 16.1404 59.7672C15.9264 59.7013 15.7344 59.5159 15.5712 59.3469C14.6666 58.4177 13.7741 57.4785 12.8023 56.4637Z" fill="#F36E0F"/>
<path d="M62.8497 32.7383C63.8933 32.7164 64.7416 32.2589 65.4068 31.4854C66.3312 30.4091 66.8486 29.1529 67.0968 27.7486C67.2369 26.9553 67.602 26.1983 67.8955 25.4369C67.9749 25.2307 68.1613 25.065 68.2992 24.8818C68.361 24.8938 68.4228 24.9059 68.4846 24.918C68.4846 25.6673 68.5287 26.4199 68.4713 27.1649C68.4173 27.8703 68.2849 28.5736 68.1404 29.2692C67.4906 32.4048 65.2601 34.0318 62.4735 35.1399C61.0825 35.6929 59.6815 35.6358 58.2606 35.3264C57.9617 35.2617 57.8072 35.1136 57.9197 34.7834C58.1646 34.0603 58.3411 33.3077 58.6522 32.6154C59.3097 31.1551 60.6544 30.7218 62.1007 30.5408C63.9484 30.3093 63.9661 30.3378 64.6379 28.6087C65.0593 27.5237 65.5314 26.4869 66.5188 25.7814C66.6059 25.72 66.6952 25.6618 66.8585 25.5499C66.6059 26.8544 66.447 28.0974 66.1128 29.2922C65.709 30.7328 64.5816 31.549 63.2468 32.1042C62.9821 32.215 62.65 32.2687 62.8508 32.7394L62.8497 32.7383Z" fill="#F36E0F"/>
<path d="M0.749309 25.2021C0.929122 25.4391 1.18174 25.6498 1.27441 25.9164C1.63734 26.9608 2.00138 28.0108 2.26944 29.0816C2.71511 30.8688 3.84914 31.9934 5.52813 32.6286C5.70904 32.6966 5.95394 32.5968 6.16906 32.5748C6.03116 32.3993 5.92967 32.1448 5.74876 32.0603C4.18671 31.3263 3.05267 30.2807 2.80888 28.4661C2.69526 27.6257 2.45146 26.8028 2.26724 25.9723C2.3246 25.935 2.38196 25.8966 2.43933 25.8593C2.89051 26.4145 3.41451 26.9268 3.77413 27.5357C4.19774 28.2521 4.4647 29.0596 4.83205 29.8112C4.91368 29.9768 5.11224 30.1502 5.28985 30.1952C6.22863 30.4343 7.17512 30.6373 8.12162 30.8447C9.33618 31.1102 10.1459 31.8266 10.5364 32.995C10.7272 33.5644 10.8651 34.1503 11.0527 34.7197C11.1696 35.0741 11.0185 35.2222 10.7041 35.3089C9.62631 35.6062 8.53971 35.7247 7.45753 35.3604C5.90871 34.8393 4.38307 34.2622 3.17292 33.1047C1.77082 31.7641 0.985382 30.1107 0.751515 28.2028C0.632376 27.2362 0.582734 26.262 0.502205 25.291C0.584941 25.2614 0.667676 25.2307 0.751515 25.201L0.749309 25.2021Z" fill="#F36E0F"/>
<path d="M12.1856 17.3752C10.8993 18.0883 9.78185 18.7016 8.66988 19.3237C8.0797 19.654 7.50386 20.0072 6.91147 20.332C6.21539 20.7138 5.50275 20.8158 4.77027 20.4077C3.70242 19.8141 2.63458 19.2217 1.55791 18.6457C1.26117 18.4877 1.25786 18.2946 1.42995 18.0785C1.57556 17.8953 1.75427 17.7296 1.94401 17.5914C3.24462 16.6456 4.54964 15.7054 5.86128 14.7739C6.09735 14.6061 6.35769 14.4656 6.62245 14.3449C7.16961 14.0959 7.72449 14.0553 8.23524 14.4316C9.50937 15.3719 10.7769 16.3231 12.1867 17.3741L12.1856 17.3752ZM7.46194 16.8256C7.35604 16.7586 7.08356 16.4865 6.98317 16.5392C6.61583 16.7323 6.25069 16.9901 5.99255 17.3094C5.80281 17.5442 5.94843 17.8448 6.28819 17.9293C6.76696 18.0478 7.45422 17.5058 7.46194 16.8256Z" fill="#F36E0F"/>
<path d="M12.6456 18.6336C12.7195 20.4867 12.8122 22.3397 12.8464 24.1939C12.8508 24.4539 12.6401 24.8061 12.4195 24.9662C10.9346 26.048 9.41892 27.0903 7.81605 28.2137C7.54137 26.342 7.26889 24.6042 7.03944 22.8609C6.94015 22.1049 7.17623 21.5081 7.93298 21.1044C9.4465 20.2991 10.9181 19.417 12.4062 18.5656C12.4857 18.5875 12.5651 18.6095 12.6445 18.6325L12.6456 18.6336ZM9.74655 24.2762C9.7642 23.5937 9.35825 22.953 9.01517 22.9958C8.56288 23.0529 8.57281 23.4621 8.55185 23.7989C8.51875 24.3321 8.8166 24.771 9.19278 24.6821C9.43657 24.6239 9.63183 24.3661 9.74766 24.2762H9.74655ZM11.5469 21.8559C11.5392 21.4554 11.1498 20.9903 10.8155 21.0265C10.4768 21.0627 10.3081 21.281 10.3169 21.6288C10.3268 22.015 10.6754 22.422 11.0152 22.4099C11.3616 22.3979 11.5513 22.2125 11.5469 21.8559Z" fill="#F36E0F"/>
<path d="M6.71842 28.3246C5.69471 28.284 4.99642 27.9362 4.60259 26.9926C4.10177 25.7924 3.18395 24.9805 1.9374 24.5439C1.76972 24.4846 1.53806 24.3365 1.50938 24.195C1.21704 22.7555 0.960012 21.3095 0.662163 19.6956C1.01407 19.8207 1.17623 19.8668 1.32846 19.9359C2.62466 20.5262 3.91864 21.1219 5.21484 21.7144C6.008 22.0775 5.95615 22.1302 6.03227 22.9848C6.17237 24.5395 6.42168 26.0842 6.62576 27.6334C6.65334 27.8462 6.68312 28.0602 6.71842 28.3246ZM2.9567 23.1472C2.96442 23.7594 3.30088 24.1994 3.61638 24.161C4.0102 24.1127 4.16023 23.8373 4.15141 23.4654C4.13927 22.9837 3.80943 22.5383 3.47849 22.6502C3.23028 22.7336 3.0604 23.043 2.95781 23.1483L2.9567 23.1472Z" fill="#F36E0F"/>
<path d="M34.5331 11.2653C35.2457 12.8836 35.9595 14.5018 36.6732 16.1234C35.152 16.2123 33.7741 16.2924 32.3069 16.3779C32.6566 14.5315 33.7024 12.9735 34.3599 11.2653C34.4173 11.2653 34.4757 11.2653 34.5331 11.2653Z" fill="#F36E0F"/>
<path d="M24.7317 38.9678C25.1078 40.269 24.5452 41.4572 23.3428 41.9794C22.3522 42.4095 21.1817 42.0014 20.5938 41.0205C20.0135 40.0518 20.2242 38.6288 21.0394 38.01C21.281 40.1648 23.3439 40.6826 24.7306 38.9689L24.7317 38.9678Z" fill="#F36E0F"/>
<path d="M47.676 37.9859C48.6666 38.6606 48.8475 40.2108 48.0753 41.3782C47.6285 42.054 46.0069 42.2877 45.2226 41.8258C44.1569 41.1972 43.7024 39.9629 44.2077 38.9568C44.7747 39.8005 45.5215 40.1494 46.5166 39.8334C47.3991 39.5537 47.6241 38.8537 47.676 37.987V37.9859Z" fill="#F36E0F"/>
<path d="M22.3632 28.635C21.0681 28.8951 20.7405 29.5084 21.2281 30.7108C21.3097 30.9127 21.3571 31.1332 21.4664 31.3186C21.8712 32.0076 21.6914 32.5946 21.1884 33.1399C19.8723 32.1667 19.2887 30.6472 19.7024 29.2725C20.0356 28.1666 20.7802 27.7069 21.8282 27.8703C22.3136 27.946 22.3599 28.228 22.3643 28.635H22.3632Z" fill="#F36E0F"/>
<path d="M7.51048 36.8833C8.94677 36.8887 10.3147 37.0094 11.6175 36.3259C11.7035 36.7845 11.7995 37.1861 11.8436 37.5942C11.8569 37.7149 11.7532 37.9233 11.6495 37.9694C10.5 38.4785 9.31412 38.789 8.03447 38.5772C7.66382 38.5158 7.48069 38.3688 7.50607 37.9771C7.52813 37.637 7.51048 37.2936 7.51048 36.8833Z" fill="#F36E0F"/>
<path d="M61.2192 38.6694C60.6114 38.586 60.0687 38.5454 59.5425 38.4302C58.8497 38.2788 58.1657 38.0835 57.4895 37.8707C57.3527 37.8279 57.1707 37.6128 57.1784 37.4867C57.2049 37.0017 57.3009 36.5201 57.3593 36.1131C58.7195 36.4696 60.0334 36.8141 61.4322 37.1806C61.3748 37.5821 61.3064 38.0561 61.2192 38.6694Z" fill="#F36E0F"/>
<path d="M47.8392 32.9983C47.2965 32.4026 47.2347 31.9286 47.6429 31.2945C48.2319 30.3806 48.1713 29.6927 47.5679 29.1748C47.2788 28.9269 46.8784 28.8084 46.5132 28.623C46.6247 27.7541 47.0064 27.6202 47.8789 27.9866C49.1453 28.5177 49.6749 30.1326 48.9766 31.4821C48.692 32.0318 48.2275 32.4904 47.8392 32.9994V32.9983Z" fill="#F36E0F"/>
<path d="M44.9721 35.864C45.1288 35.8377 45.2865 35.8103 45.484 35.7773C45.484 35.2825 45.4641 34.7943 45.4895 34.3094C45.5138 33.8398 45.5855 33.3724 45.6407 32.859C46.7581 33.356 47.505 34.8843 47.2204 35.8618C47.0085 36.5903 45.6815 37.1663 45.0185 36.8021C44.9247 36.7505 44.8442 36.5826 44.8464 36.4707C44.8508 36.2754 44.9236 36.0802 44.9721 35.8651V35.864Z" fill="#F36E0F"/>
<path d="M23.2799 32.8689C23.3108 33.2167 23.3516 33.4931 23.356 33.7696C23.3627 34.2238 23.3185 34.6791 23.3483 35.1311C23.3616 35.3297 23.4531 35.6237 23.5987 35.6962C24.0687 35.9277 23.8889 36.3457 23.8657 36.6474C23.8558 36.779 23.4024 36.9491 23.1376 36.9765C22.4195 37.0511 21.8326 36.4982 21.698 35.694C21.5237 34.6528 22.1669 33.4284 23.2799 32.8689Z" fill="#F36E0F"/>
<path d="M29.0097 15.6121C29.291 16.085 29.5723 16.5579 29.8933 17.0976C29.4311 17.2096 29.0703 17.2973 28.5706 17.4191C28.6467 16.7663 28.7129 16.198 28.778 15.6297C28.8552 15.6231 28.9324 15.6176 29.0097 15.611V15.6121Z" fill="#F36E0F"/>
<path d="M39.1652 17.1053C39.4652 16.6851 39.7333 16.3088 40.0025 15.9325C40.062 15.9358 40.1227 15.9391 40.1823 15.9424C40.2981 16.4778 40.414 17.0132 40.5585 17.6835C40.0279 17.463 39.6517 17.3072 39.1652 17.1053Z" fill="#F36E0F"/>
<path d="M43.4995 28.4321C42.8607 28.3081 42.2264 28.1391 41.5822 28.0722C40.9302 28.0042 40.2562 27.9548 39.612 28.0448C38.5761 28.1885 37.7554 28.7832 37.2711 29.6905C36.65 30.8556 36.1426 32.0811 35.58 33.277C35.548 33.3461 35.4631 33.39 35.3075 33.5337C35.2557 33.1804 35.1685 32.9193 35.1895 32.6681C35.2899 31.4942 35.3086 30.2972 35.5656 29.1551C35.9374 27.5083 37.3163 26.5 39.013 26.3497C40.5463 26.2137 41.858 26.7118 43.0273 27.6443C43.2524 27.8243 43.4035 28.0964 43.5877 28.3268C43.5579 28.3619 43.527 28.3981 43.4973 28.4332L43.4995 28.4321Z" fill="#110F00"/>
<path d="M25.2501 27.8616C25.4895 27.7277 25.741 27.6125 25.9661 27.4567C27.5855 26.3366 29.3847 26.2301 31.2303 26.6086C31.676 26.7008 32.147 27.0343 32.4504 27.3887C33.9804 29.177 33.9363 31.2945 33.5921 33.4635C33.4123 32.9819 33.2623 32.486 33.0472 32.0208C32.7659 31.4108 32.4669 30.8052 32.1194 30.2303C30.8817 28.1808 29.024 27.4677 26.6688 28.0876C26.2904 28.1874 25.8944 28.2192 25.5061 28.2829C25.4211 28.1424 25.3362 28.002 25.2512 27.8616H25.2501Z" fill="#110F00"/>
<path d="M38.6511 30.4793C38.1536 30.9302 37.7366 31.3087 37.2865 31.7169C37.4123 30.1403 39.088 29.0092 40.671 29.3723C40.7956 29.4008 40.9181 29.4381 41.0427 29.47C41.6726 29.629 42.3025 29.7881 43.0229 29.9702C42.7548 30.171 42.4691 30.5089 42.1139 30.6165C41.7631 30.7229 41.3417 30.5967 40.9126 30.5704C41.0494 31.0158 41.0979 31.5139 40.6622 31.8584C40.4184 32.0526 40.0985 32.2402 39.8017 32.261C39.0405 32.317 38.5717 31.617 38.6522 30.4782L38.6511 30.4793Z" fill="#110F00"/>
<path d="M31.3958 31.3921C31.0416 31.0882 30.6908 30.7865 30.3842 30.5232C30.2617 30.9664 30.2275 31.402 30.0212 31.7289C29.8833 31.9473 29.5094 32.0987 29.2237 32.1305C28.5397 32.2084 27.9418 31.5216 27.901 30.6603C27.2546 30.5824 26.4735 30.7755 26.1172 30.0196C26.9148 29.7991 27.6561 29.572 28.4084 29.3921C29.5921 29.109 30.9071 29.6861 31.516 30.7295C31.6594 30.9752 31.7918 31.2319 31.3958 31.3899V31.3921Z" fill="#110F00"/>
<path d="M37.6748 39.2618C37.805 39.6985 37.4763 39.896 37.1376 39.942C35.9032 40.1099 34.6776 40.5147 33.4068 40.1066C33.0913 40.0057 32.7239 40.0704 32.3809 40.0419C32.1304 40.021 31.869 40.0101 31.6406 39.9223C31.5303 39.8806 31.4299 39.6743 31.4277 39.5405C31.4266 39.4582 31.6076 39.3277 31.7278 39.2969C32.3786 39.1302 33.0317 38.8998 33.6936 38.8592C34.4162 38.8153 35.1509 38.9437 35.8789 39.0194C36.4702 39.0808 37.0582 39.1763 37.6759 39.2596L37.6748 39.2618Z" fill="#110F00"/>
<path d="M34.5386 37.7423C33.89 37.4735 33.249 37.2563 32.6622 36.9414C32.3919 36.7966 32.2375 36.3928 32.5276 36.1493C32.6842 36.0176 33.1111 36.0198 33.2987 36.1405C34.4151 36.8613 34.6324 36.88 35.698 36.1405C36.0257 35.9134 36.3709 35.8607 36.6103 36.2195C36.8629 36.598 36.5651 36.858 36.2683 37.0039C35.7179 37.276 35.1387 37.49 34.5397 37.7412L34.5386 37.7423Z" fill="#110F00"/>
<path d="M35.5414 24.4287C35.4421 24.7424 35.4266 25.0628 35.259 25.2493C35.024 25.5115 34.7019 25.7496 34.3709 25.8593C33.8867 26.0195 33.7002 25.5697 33.559 25.2383C33.4355 24.9498 33.4311 24.6558 33.8061 24.4078C34.3974 24.0161 34.6048 23.9569 35.2347 24.3167C35.3406 24.3771 35.4686 24.4012 35.5414 24.4276V24.4287Z" fill="#110F00"/>
<path d="M34.7824 42.3042C34.3643 42.2493 33.9782 42.2318 33.612 42.1352C33.4222 42.0847 33.2479 41.9136 33.1111 41.7567C33.0527 41.6898 33.0758 41.5066 33.1255 41.4078C33.1509 41.3562 33.313 41.3584 33.4134 41.3573C34.1371 41.3497 34.8596 41.3332 35.5822 41.353C35.741 41.3573 36.0223 41.4857 36.0267 41.5669C36.0345 41.7468 35.9462 42.0463 35.8183 42.0957C35.4873 42.2241 35.1144 42.2438 34.7824 42.3031V42.3042Z" fill="#110F00"/>
<path d="M63.922 24.9981C63.3781 24.6152 62.906 24.2816 62.3268 23.8735V26.07C61.783 26.0305 61.3241 25.9965 60.7979 25.9581C61.0273 25.2274 61.2303 24.5801 61.463 23.8384C60.8012 23.9832 60.2419 24.105 59.6771 24.2279C59.3152 23.4818 59.4719 22.3375 60.0907 21.8032C60.8707 21.1307 61.6936 20.5075 62.5872 19.7922C63.2612 20.9014 63.8778 21.8855 64.4548 22.8927C64.5519 23.0616 64.5287 23.3436 64.4669 23.5455C64.3257 24.0106 64.1282 24.4583 63.9209 24.9981H63.922Z" fill="#110F00"/>
<path d="M61.1111 19.5442C60.7228 19.6101 60.3544 19.6583 60.3731 18.8882C60.0654 19.0889 59.8878 19.2403 59.6826 19.3292C59.473 19.4203 59.2369 19.4499 58.8861 19.5388C59.3152 18.6687 59.6671 17.938 60.0389 17.2183C60.0841 17.1295 60.2364 17.0351 60.3279 17.0461C60.4217 17.057 60.553 17.1788 60.5772 17.2754C60.767 18.0247 60.9346 18.7795 61.1123 19.5442H61.1111Z" fill="#110F00"/>
<path d="M7.49504 16.8256C7.48731 17.5058 6.80006 18.0489 6.32129 17.9293C5.98152 17.8448 5.83591 17.5453 6.02565 17.3094C6.28378 16.9901 6.64893 16.7323 7.01627 16.5392C7.11666 16.4865 7.38914 16.7575 7.49504 16.8256Z" fill="#110F00"/>
<path d="M9.77855 24.2762C9.66272 24.3661 9.46746 24.625 9.22366 24.6821C8.84749 24.771 8.54964 24.3321 8.58274 23.7989C8.6037 23.4621 8.59377 23.0529 9.04606 22.9958C9.38914 22.9519 9.79509 23.5937 9.77744 24.2762H9.77855Z" fill="#110F00"/>
<path d="M11.58 21.8559C11.5844 22.2125 11.3947 22.3979 11.0483 22.4099C10.7085 22.422 10.3599 22.015 10.35 21.6288C10.3412 21.281 10.5099 21.0638 10.8486 21.0265C11.1828 20.9903 11.5723 21.4554 11.58 21.8559Z" fill="#110F00"/>
<path d="M2.9898 23.1472C3.09239 23.043 3.26338 22.7325 3.51048 22.6491C3.84253 22.5383 4.17126 22.9837 4.1834 23.4643C4.19333 23.8362 4.0422 24.1116 3.64837 24.1599C3.33398 24.1983 2.99642 23.7583 2.98869 23.1461L2.9898 23.1472Z" fill="#110F00"/>
</g>
<defs>
<clipPath id="clip0_33_15">
<rect width="68" height="68" fill="white" transform="translate(0.5)"/>
</clipPath>
</defs>
</svg>
